# xmcd
#
# Track frame offsets:
#	150
#	15103
#	26633
#	42540
#	62225
#	81055
#	97328
#	108783
#	125980
#	136340
#	153633
#	166450
#	179965
#	194855
#	210925
#	227620
#
# Disc length: 3363
#
# Revision: 1
# Processed by: cddbd v1.5.1PL0 Copyright (c) Steve Scherf et al.
# Submitted via: EasyCDDAExtractor 8.0.2.1
# Normalized: r0:DSETVAR1
#
DISCID=e70d2110
DTITLE=Various Artist - In the Heat of the night
DYEAR=1900
DGENRE=
TTITLE0=Percy Sledge - Warm and tender love
TTITLE1=Dinah Washington - What a difference a day makes
TTITLE2=John Lee Hooker - It serve me right to suffer
TTITLE3=Sylvia - Pillow Talk
TTITLE4=Nina Simone - I Loves you Porgy
TTITLE5=Rod Stewart - Little miss unterstood
TTITLE6=The Platters - Smoke get in your eyes
TTITLE7=Spooky Tooth - Kyle
TTITLE8=Louis Armstrong - What a wonderful world
TTITLE9=The Sunshine Band - Please don´t go
TTITLE10=Fleetwod Mac - Man of the World
TTITLE11=Juniour Brown - My devotion
TTITLE12=Eddie Holman - Hey there lonely Girl
TTITLE13=Eydie Grome - Round about Midnight
TTITLE14=Bob Marley - Duppy Conquero
TTITLE15=Chi Lites - Have you seen her
EXTD=
EXTT0=
EXTT1=
EXTT2=
EXTT3=
EXTT4=
EXTT5=
EXTT6=
EXTT7=
EXTT8=
EXTT9=
EXTT10=
EXTT11=
EXTT12=
EXTT13=
EXTT14=
EXTT15=
PLAYORDER=
